# MagicaVoxel @ Ephtracy

# group
o 

# material
mtllib Enderman.mtl
usemtl palette

# normals
vn -1 0 0
vn 1 0 0
vn 0 0 1
vn 0 0 -1
vn 0 -1 0
vn 0 1 0

# texcoords
vt 0.833984 0.5
vt 0.916016 0.5
vt 0.994141 0.5

# verts
v -0.6 1.1 -0.6
v -0.6 1.1 -0.8
v -0.6 3.7 -0.6
v -0.6 3.7 -0.8
v -0.4 2.6 -0.5
v -0.4 2.6 -0.6
v -0.4 2.6 -0.8
v -0.4 2.6 -0.9
v -0.4 3.7 -0.3
v -0.4 3.7 -0.5
v -0.4 3.7 -0.6
v -0.4 3.7 -0.8
v -0.4 3.7 -0.9
v -0.4 3.7 -1.1
v -0.4 4 -0.3
v -0.4 4 -0.4
v -0.4 4.1 -0.3
v -0.4 4.1 -0.4
v -0.4 4.5 -0.3
v -0.4 4.5 -1.1
v -0.3 0 -0.6
v -0.3 0 -0.8
v -0.3 2.6 -0.6
v -0.3 2.6 -0.8
v 0.1 0 -0.6
v 0.1 0 -0.8
v 0.1 2.6 -0.6
v 0.1 2.6 -0.8
v 0.4 1.1 -0.6
v 0.4 1.1 -0.8
v 0.4 2.6 -0.6
v 0.4 2.6 -0.8
v -0.4 1.1 -0.6
v -0.4 1.1 -0.8
v -0.4 2.6 -0.6
v -0.4 2.6 -0.8
v -0.1 0 -0.6
v -0.1 0 -0.8
v -0.1 2.6 -0.6
v -0.1 2.6 -0.8
v 0.3 0 -0.6
v 0.3 0 -0.8
v 0.3 2.6 -0.6
v 0.3 2.6 -0.8
v 0.4 2.6 -0.5
v 0.4 2.6 -0.6
v 0.4 2.6 -0.8
v 0.4 2.6 -0.9
v 0.4 3.7 -0.3
v 0.4 3.7 -0.5
v 0.4 3.7 -0.6
v 0.4 3.7 -0.8
v 0.4 3.7 -0.9
v 0.4 3.7 -1.1
v 0.4 4 -0.3
v 0.4 4 -0.4
v 0.4 4.1 -0.3
v 0.4 4.1 -0.4
v 0.4 4.5 -0.3
v 0.4 4.5 -1.1
v 0.6 1.1 -0.6
v 0.6 1.1 -0.8
v 0.6 3.7 -0.6
v 0.6 3.7 -0.8
v -0.4 3.7 -0.3
v -0.4 4 -0.3
v -0.4 4.1 -0.3
v -0.4 4.5 -0.3
v -0.3 4 -0.3
v -0.3 4.1 -0.3
v -0.2 4 -0.3
v -0.2 4.1 -0.3
v -0.1 4 -0.3
v -0.1 4.1 -0.3
v 0.1 4 -0.3
v 0.1 4.1 -0.3
v 0.2 4 -0.3
v 0.2 4.1 -0.3
v 0.3 4 -0.3
v 0.3 4.1 -0.3
v 0.4 3.7 -0.3
v 0.4 4 -0.3
v 0.4 4.1 -0.3
v 0.4 4.5 -0.3
v -0.4 2.6 -0.5
v -0.4 3.7 -0.5
v 0.4 2.6 -0.5
v 0.4 3.7 -0.5
v -0.6 1.1 -0.6
v -0.6 3.7 -0.6
v -0.4 1.1 -0.6
v -0.4 2.6 -0.6
v -0.4 3.7 -0.6
v -0.3 0 -0.6
v -0.3 2.6 -0.6
v -0.1 0 -0.6
v -0.1 2.6 -0.6
v 0.1 0 -0.6
v 0.1 2.6 -0.6
v 0.3 0 -0.6
v 0.3 2.6 -0.6
v 0.4 1.1 -0.6
v 0.4 2.6 -0.6
v 0.4 3.7 -0.6
v 0.6 1.1 -0.6
v 0.6 3.7 -0.6
v -0.6 1.1 -0.8
v -0.6 3.7 -0.8
v -0.4 1.1 -0.8
v -0.4 2.6 -0.8
v -0.4 3.7 -0.8
v -0.3 0 -0.8
v -0.3 2.6 -0.8
v -0.1 0 -0.8
v -0.1 2.6 -0.8
v 0.1 0 -0.8
v 0.1 2.6 -0.8
v 0.3 0 -0.8
v 0.3 2.6 -0.8
v 0.4 1.1 -0.8
v 0.4 2.6 -0.8
v 0.4 3.7 -0.8
v 0.6 1.1 -0.8
v 0.6 3.7 -0.8
v -0.4 2.6 -0.9
v -0.4 3.7 -0.9
v 0.4 2.6 -0.9
v 0.4 3.7 -0.9
v -0.4 3.7 -1.1
v -0.4 4.5 -1.1
v 0.4 3.7 -1.1
v 0.4 4.5 -1.1
v -0.3 0 -0.6
v -0.1 0 -0.6
v 0.1 0 -0.6
v 0.3 0 -0.6
v -0.3 0 -0.8
v -0.1 0 -0.8
v 0.1 0 -0.8
v 0.3 0 -0.8
v -0.6 1.1 -0.6
v -0.4 1.1 -0.6
v 0.4 1.1 -0.6
v 0.6 1.1 -0.6
v -0.6 1.1 -0.8
v -0.4 1.1 -0.8
v 0.4 1.1 -0.8
v 0.6 1.1 -0.8
v -0.4 2.6 -0.5
v 0.4 2.6 -0.5
v -0.4 2.6 -0.6
v -0.3 2.6 -0.6
v -0.1 2.6 -0.6
v 0.1 2.6 -0.6
v 0.3 2.6 -0.6
v 0.4 2.6 -0.6
v -0.4 2.6 -0.8
v -0.3 2.6 -0.8
v -0.1 2.6 -0.8
v 0.1 2.6 -0.8
v 0.3 2.6 -0.8
v 0.4 2.6 -0.8
v -0.4 2.6 -0.9
v 0.4 2.6 -0.9
v -0.4 3.7 -0.3
v 0.4 3.7 -0.3
v -0.4 3.7 -0.5
v 0.4 3.7 -0.5
v -0.4 3.7 -0.9
v 0.4 3.7 -0.9
v -0.4 3.7 -1.1
v 0.4 3.7 -1.1
v -0.6 3.7 -0.6
v -0.4 3.7 -0.6
v 0.4 3.7 -0.6
v 0.6 3.7 -0.6
v -0.6 3.7 -0.8
v -0.4 3.7 -0.8
v 0.4 3.7 -0.8
v 0.6 3.7 -0.8
v -0.4 4.5 -0.3
v 0.4 4.5 -0.3
v -0.4 4.5 -1.1
v 0.4 4.5 -1.1

# faces
f 3/3/1 2/3/1 1/3/1
f 4/3/1 2/3/1 3/3/1
f 10/3/1 6/3/1 5/3/1
f 11/3/1 6/3/1 10/3/1
f 12/3/1 8/3/1 7/3/1
f 13/3/1 8/3/1 12/3/1
f 15/3/1 11/3/1 10/3/1
f 15/3/1 14/3/1 13/3/1
f 15/3/1 13/3/1 12/3/1
f 15/3/1 12/3/1 11/3/1
f 15/3/1 10/3/1 9/3/1
f 16/3/1 14/3/1 15/3/1
f 17/2/1 16/2/1 15/2/1
f 18/3/1 14/3/1 16/3/1
f 18/2/1 16/2/1 17/2/1
f 19/3/1 18/3/1 17/3/1
f 20/3/1 14/3/1 18/3/1
f 20/3/1 18/3/1 19/3/1
f 23/3/1 22/3/1 21/3/1
f 24/3/1 22/3/1 23/3/1
f 27/3/1 26/3/1 25/3/1
f 28/3/1 26/3/1 27/3/1
f 31/3/1 30/3/1 29/3/1
f 32/3/1 30/3/1 31/3/1
f 33/3/2 34/3/2 35/3/2
f 35/3/2 34/3/2 36/3/2
f 37/3/2 38/3/2 39/3/2
f 39/3/2 38/3/2 40/3/2
f 41/3/2 42/3/2 43/3/2
f 43/3/2 42/3/2 44/3/2
f 45/3/2 46/3/2 50/3/2
f 50/3/2 46/3/2 51/3/2
f 47/3/2 48/3/2 52/3/2
f 52/3/2 48/3/2 53/3/2
f 50/3/2 51/3/2 55/3/2
f 53/3/2 54/3/2 55/3/2
f 52/3/2 53/3/2 55/3/2
f 51/3/2 52/3/2 55/3/2
f 49/3/2 50/3/2 55/3/2
f 55/3/2 54/3/2 56/3/2
f 55/2/2 56/2/2 57/2/2
f 56/3/2 54/3/2 58/3/2
f 57/2/2 56/2/2 58/2/2
f 57/3/2 58/3/2 59/3/2
f 58/3/2 54/3/2 60/3/2
f 59/3/2 58/3/2 60/3/2
f 61/3/2 62/3/2 63/3/2
f 63/3/2 62/3/2 64/3/2
f 69/3/3 66/3/3 65/3/3
f 69/2/3 67/2/3 66/2/3
f 70/3/3 68/3/3 67/3/3
f 70/2/3 67/2/3 69/2/3
f 71/3/3 69/3/3 65/3/3
f 71/1/3 70/1/3 69/1/3
f 72/3/3 68/3/3 70/3/3
f 72/1/3 70/1/3 71/1/3
f 73/3/3 71/3/3 65/3/3
f 73/2/3 72/2/3 71/2/3
f 74/3/3 68/3/3 72/3/3
f 74/2/3 72/2/3 73/2/3
f 75/3/3 73/3/3 65/3/3
f 75/3/3 74/3/3 73/3/3
f 76/3/3 68/3/3 74/3/3
f 76/3/3 74/3/3 75/3/3
f 77/3/3 75/3/3 65/3/3
f 77/2/3 76/2/3 75/2/3
f 78/3/3 68/3/3 76/3/3
f 78/2/3 76/2/3 77/2/3
f 79/3/3 77/3/3 65/3/3
f 79/1/3 78/1/3 77/1/3
f 80/3/3 68/3/3 78/3/3
f 80/1/3 78/1/3 79/1/3
f 81/3/3 79/3/3 65/3/3
f 82/2/3 80/2/3 79/2/3
f 82/3/3 79/3/3 81/3/3
f 83/3/3 68/3/3 80/3/3
f 83/2/3 80/2/3 82/2/3
f 84/3/3 68/3/3 83/3/3
f 87/3/3 86/3/3 85/3/3
f 88/3/3 86/3/3 87/3/3
f 91/3/3 90/3/3 89/3/3
f 92/3/3 90/3/3 91/3/3
f 93/3/3 90/3/3 92/3/3
f 96/3/3 95/3/3 94/3/3
f 97/3/3 95/3/3 96/3/3
f 100/3/3 99/3/3 98/3/3
f 101/3/3 99/3/3 100/3/3
f 105/3/3 103/3/3 102/3/3
f 105/3/3 104/3/3 103/3/3
f 106/3/3 104/3/3 105/3/3
f 107/3/4 108/3/4 109/3/4
f 109/3/4 108/3/4 110/3/4
f 110/3/4 108/3/4 111/3/4
f 112/3/4 113/3/4 114/3/4
f 114/3/4 113/3/4 115/3/4
f 116/3/4 117/3/4 118/3/4
f 118/3/4 117/3/4 119/3/4
f 120/3/4 121/3/4 123/3/4
f 121/3/4 122/3/4 123/3/4
f 123/3/4 122/3/4 124/3/4
f 125/3/4 126/3/4 127/3/4
f 127/3/4 126/3/4 128/3/4
f 129/3/4 130/3/4 131/3/4
f 131/3/4 130/3/4 132/3/4
f 137/3/5 134/3/5 133/3/5
f 138/3/5 134/3/5 137/3/5
f 139/3/5 136/3/5 135/3/5
f 140/3/5 136/3/5 139/3/5
f 145/3/5 142/3/5 141/3/5
f 146/3/5 142/3/5 145/3/5
f 147/3/5 144/3/5 143/3/5
f 148/3/5 144/3/5 147/3/5
f 151/3/5 150/3/5 149/3/5
f 152/3/5 150/3/5 151/3/5
f 153/3/5 150/3/5 152/3/5
f 154/3/5 150/3/5 153/3/5
f 155/3/5 150/3/5 154/3/5
f 156/3/5 150/3/5 155/3/5
f 157/3/5 152/3/5 151/3/5
f 158/3/5 152/3/5 157/3/5
f 159/3/5 154/3/5 153/3/5
f 160/3/5 154/3/5 159/3/5
f 161/3/5 156/3/5 155/3/5
f 162/3/5 156/3/5 161/3/5
f 163/3/5 160/3/5 159/3/5
f 163/3/5 158/3/5 157/3/5
f 163/3/5 162/3/5 161/3/5
f 163/3/5 161/3/5 160/3/5
f 163/3/5 159/3/5 158/3/5
f 164/3/5 162/3/5 163/3/5
f 167/3/5 166/3/5 165/3/5
f 168/3/5 166/3/5 167/3/5
f 171/3/5 170/3/5 169/3/5
f 172/3/5 170/3/5 171/3/5
f 173/3/6 174/3/6 177/3/6
f 177/3/6 174/3/6 178/3/6
f 175/3/6 176/3/6 179/3/6
f 179/3/6 176/3/6 180/3/6
f 181/3/6 182/3/6 183/3/6
f 183/3/6 182/3/6 184/3/6
